<svg width="1028" height="900" viewBox="0 0 1028 900" fill="none" xmlns="http://www.w3.org/2000/svg">
<path d="M378.465 190.806C378.314 189.598 378.193 189.477 376.954 189.296C378.163 189.145 378.284 189.024 378.465 187.786C378.616 188.994 378.737 189.114 379.976 189.296C378.767 189.447 378.647 189.598 378.465 190.806Z" fill="white" fill-opacity="0.1"/>
<path d="M391.782 24.3301C391.631 23.122 391.51 23.0012 390.271 22.8199C391.48 22.6688 391.6 22.548 391.782 21.3097C391.933 22.5179 392.054 22.6386 393.293 22.8199C392.084 22.9708 391.963 23.122 391.782 24.3301Z" fill="white" fill-opacity="0.1"/>
<path d="M477.229 129.383C477.078 128.174 476.957 128.054 475.718 127.872C476.927 127.721 477.048 127.6 477.229 126.362C477.38 127.57 477.501 127.691 478.74 127.872C477.531 128.023 477.411 128.174 477.229 129.383Z" fill="white" fill-opacity="0.1"/>
<path d="M568.951 38.7029C568.951 39.32 568.45 39.8205 567.832 39.8205C567.215 39.8205 566.714 39.32 566.714 38.7029C566.714 38.0856 567.215 37.5854 567.832 37.5854C568.45 37.5854 568.951 38.0856 568.951 38.7029Z" fill="white" fill-opacity="0.1"/>
<path d="M414.895 89.2197C414.895 89.8368 414.395 90.3373 413.777 90.3373C413.16 90.3373 412.659 89.8368 412.659 89.2197C412.659 88.6024 413.16 88.1022 413.777 88.1022C414.395 88.1022 414.895 88.6024 414.895 89.2197Z" fill="white" fill-opacity="0.1"/>
<path d="M420.25 192.583C420.25 193.2 419.749 193.7 419.132 193.7C418.514 193.7 418.013 193.2 418.013 192.583C418.013 191.965 418.514 191.465 419.132 191.465C419.749 191.465 420.25 191.965 420.25 192.583Z" fill="white" fill-opacity="0.1"/>
<path d="M435.724 132.287C435.724 132.904 435.223 133.405 434.606 133.405C433.988 133.405 433.487 132.904 433.487 132.287C433.487 131.67 433.988 131.17 434.606 131.17C435.223 131.17 435.724 131.67 435.724 132.287Z" fill="white" fill-opacity="0.1"/>
<path d="M636.332 22.1235C635.553 22.9018 634.29 22.9018 633.511 22.1235C632.732 21.3449 632.732 20.0827 633.511 19.3043C634.29 18.5257 635.553 18.5257 636.332 19.3043C637.111 20.0827 637.111 21.3449 636.332 22.1235Z" fill="white" fill-opacity="0.15"/>
<path d="M517.904 89.3797C517.904 89.9968 517.403 90.4972 516.786 90.4972C516.168 90.4972 515.668 89.9968 515.668 89.3797C515.668 88.7624 516.168 88.2622 516.786 88.2622C517.403 88.2622 517.904 88.7624 517.904 89.3797Z" fill="white" fill-opacity="0.15"/>
<path d="M455.405 15.0826C455.254 13.8744 455.133 13.7536 453.894 13.5723C455.103 13.4212 455.224 13.3004 455.405 12.0621C455.556 13.2703 455.677 13.3911 456.916 13.5723C455.707 13.7232 455.586 13.8744 455.405 15.0826Z" fill="white" fill-opacity="0.1"/>
<path d="M484.196 93.1308C484.044 91.9226 483.924 91.8019 482.685 91.6206C483.893 91.4694 484.014 91.3487 484.196 90.1104C484.347 91.3186 484.468 91.4393 485.706 91.6206C484.498 91.7715 484.377 91.9226 484.196 93.1308Z" fill="white" fill-opacity="0.1"/>
<path d="M805.223 395.39C805.374 396.598 805.495 396.719 806.734 396.9C805.525 397.051 805.405 397.172 805.223 398.41C805.072 397.202 804.951 397.082 803.712 396.9C804.921 396.749 805.042 396.598 805.223 395.39Z" fill="white" fill-opacity="0.1"/>
<path d="M888.821 151.605C888.972 152.813 889.093 152.933 890.332 153.115C889.123 153.266 889.003 153.387 888.821 154.625C888.67 153.417 888.549 153.296 887.31 153.115C888.519 152.964 888.64 152.813 888.821 151.605Z" fill="white" fill-opacity="0.1"/>
<path d="M875.505 318.08C875.656 319.289 875.777 319.409 877.016 319.591C875.807 319.742 875.686 319.862 875.505 321.101C875.354 319.893 875.233 319.772 873.994 319.591C875.202 319.44 875.323 319.289 875.505 318.08Z" fill="white" fill-opacity="0.1"/>
<path d="M790.057 213.028C790.208 214.236 790.329 214.357 791.568 214.538C790.359 214.689 790.238 214.81 790.057 216.048C789.906 214.84 789.785 214.719 788.546 214.538C789.755 214.387 789.876 214.236 790.057 213.028Z" fill="white" fill-opacity="0.1"/>
<path d="M914.05 397.293C914.05 396.676 914.551 396.175 915.168 396.175C915.786 396.175 916.286 396.676 916.286 397.293C916.286 397.91 915.786 398.41 915.168 398.41C914.551 398.41 914.05 397.91 914.05 397.293Z" fill="white" fill-opacity="0.1"/>
<path d="M698.336 303.708C698.336 303.09 698.836 302.59 699.454 302.59C700.071 302.59 700.572 303.09 700.572 303.708C700.572 304.325 700.071 304.825 699.454 304.825C698.836 304.825 698.336 304.325 698.336 303.708Z" fill="white" fill-opacity="0.1"/>
<path d="M852.391 253.191C852.391 252.574 852.892 252.073 853.509 252.073C854.127 252.073 854.627 252.574 854.627 253.191C854.627 253.808 854.127 254.308 853.509 254.308C852.892 254.308 852.391 253.808 852.391 253.191Z" fill="white" fill-opacity="0.1"/>
<path d="M847.037 149.828C847.037 149.211 847.537 148.71 848.155 148.71C848.772 148.71 849.273 149.211 849.273 149.828C849.273 150.445 848.772 150.945 848.155 150.945C847.537 150.945 847.037 150.445 847.037 149.828Z" fill="white" fill-opacity="0.1"/>
<path d="M831.563 210.123C831.563 209.506 832.063 209.006 832.681 209.006C833.298 209.006 833.799 209.506 833.799 210.123C833.799 210.741 833.298 211.241 832.681 211.241C832.063 211.241 831.563 210.741 831.563 210.123Z" fill="white" fill-opacity="0.1"/>
<path d="M624.899 385.346C625.906 384.9 627.084 385.355 627.53 386.362C627.976 387.369 627.521 388.546 626.513 388.992C625.506 389.437 624.328 388.983 623.882 387.976C623.436 386.969 623.892 385.792 624.899 385.346Z" fill="white" fill-opacity="0.15"/>
<path d="M779.071 368.674C779.071 367.573 779.964 366.681 781.066 366.681C782.167 366.681 783.06 367.573 783.06 368.674C783.06 369.775 782.167 370.668 781.066 370.668C779.964 370.668 779.071 369.775 779.071 368.674Z" fill="white" fill-opacity="0.15"/>
<path d="M630.955 320.287C631.734 319.509 632.996 319.509 633.775 320.287C634.554 321.066 634.554 322.328 633.775 323.106C632.996 323.885 631.734 323.885 630.955 323.106C630.176 322.328 630.176 321.066 630.955 320.287Z" fill="white" fill-opacity="0.15"/>
<path d="M656.167 369.55C656.167 368.933 656.667 368.433 657.285 368.433C657.903 368.433 658.403 368.933 658.403 369.55C658.403 370.168 657.903 370.668 657.285 370.668C656.667 370.668 656.167 370.168 656.167 369.55Z" fill="white" fill-opacity="0.15"/>
<path d="M749.382 253.031C749.382 252.414 749.883 251.913 750.501 251.913C751.118 251.913 751.619 252.414 751.619 253.031C751.619 253.648 751.118 254.148 750.501 254.148C749.883 254.148 749.382 253.648 749.382 253.031Z" fill="white" fill-opacity="0.15"/>
<path d="M811.881 327.328C812.032 328.536 812.153 328.657 813.392 328.838C812.184 328.989 812.063 329.11 811.881 330.348C811.73 329.14 811.609 329.019 810.37 328.838C811.579 328.687 811.7 328.536 811.881 327.328Z" fill="white" fill-opacity="0.1"/>
<path d="M706.521 375.417C706.672 376.625 706.793 376.746 708.032 376.927C706.823 377.078 706.702 377.199 706.521 378.437C706.37 377.229 706.249 377.108 705.01 376.927C706.219 376.776 706.34 376.625 706.521 375.417Z" fill="white" fill-opacity="0.1"/>
<path d="M783.091 249.28C783.242 250.488 783.363 250.609 784.602 250.79C783.393 250.941 783.272 251.062 783.091 252.3C782.94 251.092 782.819 250.971 781.58 250.79C782.789 250.639 782.91 250.488 783.091 249.28Z" fill="white" fill-opacity="0.1"/>
<path d="M850.783 364.319C850.934 365.528 851.055 365.648 852.294 365.83C851.085 365.981 850.964 366.102 850.783 367.34C850.632 366.132 850.511 366.011 849.272 365.83C850.481 365.679 850.602 365.528 850.783 364.319Z" fill="white" fill-opacity="0.1"/>
<path d="M942.659 598.202C942.809 596.994 942.93 596.873 944.169 596.692C942.961 596.541 942.84 596.42 942.659 595.181C942.507 596.39 942.386 596.51 941.148 596.692C942.356 596.843 942.477 596.994 942.659 598.202Z" fill="white" fill-opacity="0.1"/>
<path d="M1026.3 740.362C1026.45 739.154 1026.57 739.033 1027.81 738.852C1026.6 738.7 1026.48 738.58 1026.3 737.341C1026.15 738.55 1026.03 738.67 1024.79 738.852C1026 739.003 1026.12 739.154 1026.3 740.362Z" fill="white" fill-opacity="0.1"/>
<path d="M930.063 732.025C930.214 730.816 930.335 730.696 931.574 730.514C930.365 730.363 930.244 730.243 930.063 729.004C929.912 730.212 929.791 730.333 928.552 730.514C929.76 730.665 929.881 730.816 930.063 732.025Z" fill="white" fill-opacity="0.1"/>
<path d="M765.231 640.139C765.382 638.931 765.503 638.81 766.742 638.629C765.533 638.478 765.412 638.357 765.231 637.119C765.08 638.327 764.959 638.448 763.72 638.629C764.929 638.78 765.05 638.931 765.231 640.139Z" fill="white" fill-opacity="0.1"/>
<path d="M853.944 544.196C854.095 542.988 854.216 542.867 855.455 542.686C854.246 542.534 854.125 542.414 853.944 541.175C853.793 542.383 853.672 542.504 852.433 542.686C853.641 542.836 853.762 542.988 853.944 544.196Z" fill="white" fill-opacity="0.1"/>
<path d="M873.152 590.203C873.152 590.82 873.653 591.32 874.27 591.32C874.888 591.32 875.388 590.82 875.388 590.203C875.388 589.585 874.888 589.085 874.27 589.085C873.653 589.085 873.152 589.585 873.152 590.203Z" fill="white" fill-opacity="0.1"/>
<path d="M707.061 698.068C707.061 698.685 707.561 699.185 708.179 699.185C708.796 699.185 709.297 698.685 709.297 698.068C709.297 697.45 708.796 696.95 708.179 696.95C707.561 696.95 707.061 697.45 707.061 698.068Z" fill="white" fill-opacity="0.1"/>
<path d="M963.773 622.607C963.773 623.224 964.274 623.725 964.892 623.725C965.509 623.725 966.01 623.224 966.01 622.607C966.01 621.99 965.509 621.49 964.892 621.49C964.274 621.49 963.773 621.99 963.773 622.607Z" fill="white" fill-opacity="0.1"/>
<path d="M752.594 540.118C752.594 540.735 753.095 541.235 753.713 541.235C754.33 541.235 754.831 540.735 754.831 540.118C754.831 539.5 754.33 539 753.713 539C753.095 539 752.594 539.5 752.594 540.118Z" fill="white" fill-opacity="0.1"/>
<path d="M990.406 665.886C990.406 666.503 990.907 667.003 991.525 667.003C992.142 667.003 992.643 666.503 992.643 665.886C992.643 665.269 992.142 664.768 991.525 664.768C990.907 664.768 990.406 665.269 990.406 665.886Z" fill="white" fill-opacity="0.1"/>
<path d="M955.618 755.133C955.618 755.751 956.118 756.251 956.736 756.251C957.353 756.251 957.854 755.751 957.854 755.133C957.854 754.516 957.353 754.016 956.736 754.016C956.118 754.016 955.618 754.516 955.618 755.133Z" fill="white" fill-opacity="0.1"/>
<path d="M935.599 646.651C935.599 647.268 936.099 647.769 936.717 647.769C937.335 647.769 937.835 647.268 937.835 646.651C937.835 646.034 937.335 645.534 936.717 645.534C936.099 645.534 935.599 646.034 935.599 646.651Z" fill="white" fill-opacity="0.1"/>
<path d="M951.275 690.136C952.282 690.582 953.46 690.127 953.906 689.12C954.352 688.114 953.896 686.936 952.889 686.49C951.882 686.045 950.704 686.5 950.258 687.506C949.812 688.513 950.268 689.69 951.275 690.136Z" fill="white" fill-opacity="0.15"/>
<path d="M804.571 684.59C804.571 685.691 805.464 686.584 806.565 686.584C807.667 686.584 808.56 685.691 808.56 684.59C808.56 683.489 807.667 682.597 806.565 682.597C805.464 682.597 804.571 683.489 804.571 684.59Z" fill="white" fill-opacity="0.15"/>
<path d="M870.71 651.624C871.489 652.402 872.752 652.402 873.531 651.624C874.31 650.845 874.31 649.583 873.531 648.805C872.752 648.026 871.489 648.026 870.71 648.805C869.931 649.583 869.931 650.845 870.71 651.624Z" fill="white" fill-opacity="0.15"/>
<path d="M942.627 548.997C942.627 549.614 943.128 550.114 943.745 550.114C944.363 550.114 944.863 549.614 944.863 548.997C944.863 548.38 944.363 547.879 943.745 547.879C943.128 547.879 942.627 548.38 942.627 548.997Z" fill="white" fill-opacity="0.15"/>
<path d="M820.251 580.068C820.251 580.685 820.752 581.186 821.369 581.186C821.987 581.186 822.487 580.685 822.487 580.068C822.487 579.451 821.987 578.951 821.369 578.951C820.752 578.951 820.251 579.451 820.251 580.068Z" fill="white" fill-opacity="0.15"/>
<path d="M808.673 754.061C808.825 752.852 808.945 752.732 810.184 752.55C808.976 752.399 808.855 752.278 808.673 751.04C808.522 752.248 808.402 752.369 807.163 752.55C808.371 752.701 808.492 752.852 808.673 754.061Z" fill="white" fill-opacity="0.1"/>
<path d="M721.149 611.148C721.3 609.94 721.42 609.819 722.659 609.638C721.451 609.487 721.33 609.366 721.149 608.128C720.997 609.336 720.877 609.456 719.638 609.638C720.846 609.789 720.967 609.94 721.149 611.148Z" fill="white" fill-opacity="0.1"/>
<path d="M665.51 663.768C665.661 662.56 665.782 662.439 667.021 662.258C665.812 662.107 665.692 661.986 665.51 660.747C665.359 661.956 665.238 662.076 663.999 662.258C665.208 662.409 665.329 662.56 665.51 663.768Z" fill="white" fill-opacity="0.1"/>
<path d="M751.3 775.957C751.452 777.165 751.572 777.286 752.811 777.467C751.603 777.618 751.482 777.739 751.3 778.977C751.149 777.769 751.028 777.648 749.789 777.467C750.998 777.316 751.119 777.165 751.3 775.957Z" fill="white" fill-opacity="0.1"/>
<path d="M655.061 784.294C655.212 785.502 655.333 785.623 656.572 785.804C655.363 785.956 655.242 786.076 655.061 787.315C654.91 786.106 654.789 785.986 653.55 785.804C654.759 785.654 654.879 785.502 655.061 784.294Z" fill="white" fill-opacity="0.1"/>
<path d="M455.764 718C455.915 719.208 456.036 719.329 457.275 719.51C456.066 719.661 455.945 719.782 455.764 721.02C455.613 719.812 455.492 719.691 454.253 719.51C455.462 719.359 455.583 719.208 455.764 718Z" fill="white" fill-opacity="0.1"/>
<path d="M432.059 818.251C432.059 817.634 432.559 817.134 433.177 817.134C433.795 817.134 434.295 817.634 434.295 818.251C434.295 818.869 433.795 819.369 433.177 819.369C432.559 819.369 432.059 818.869 432.059 818.251Z" fill="white" fill-opacity="0.1"/>
<path d="M688.772 893.712C688.772 893.095 689.272 892.594 689.89 892.594C690.507 892.594 691.008 893.095 691.008 893.712C691.008 894.329 690.507 894.829 689.89 894.829C689.272 894.829 688.772 894.329 688.772 893.712Z" fill="white" fill-opacity="0.1"/>
<path d="M715.405 850.433C715.405 849.816 715.905 849.315 716.523 849.315C717.14 849.315 717.641 849.816 717.641 850.433C717.641 851.05 717.14 851.55 716.523 851.55C715.905 851.55 715.405 851.05 715.405 850.433Z" fill="white" fill-opacity="0.1"/>
<path d="M680.616 761.185C680.616 760.568 681.116 760.068 681.734 760.068C682.351 760.068 682.852 760.568 682.852 761.185C682.852 761.803 682.351 762.303 681.734 762.303C681.116 762.303 680.616 761.803 680.616 761.185Z" fill="white" fill-opacity="0.1"/>
<path d="M660.597 869.668C660.597 869.05 661.098 868.55 661.715 868.55C662.333 868.55 662.833 869.05 662.833 869.668C662.833 870.285 662.333 870.785 661.715 870.785C661.098 870.785 660.597 870.285 660.597 869.668Z" fill="white" fill-opacity="0.1"/>
<path d="M676.273 826.183C677.28 825.737 678.458 826.192 678.904 827.199C679.35 828.205 678.895 829.383 677.887 829.828C676.88 830.274 675.702 829.819 675.256 828.812C674.81 827.806 675.266 826.629 676.273 826.183Z" fill="white" fill-opacity="0.15"/>
<path d="M529.569 831.728C529.569 830.627 530.462 829.735 531.563 829.735C532.665 829.735 533.558 830.627 533.558 831.728C533.558 832.829 532.665 833.722 531.563 833.722C530.462 833.722 529.569 832.829 529.569 831.728Z" fill="white" fill-opacity="0.15"/>
<path d="M595.708 864.695C596.487 863.917 597.75 863.917 598.529 864.695C599.308 865.474 599.308 866.736 598.529 867.514C597.75 868.293 596.487 868.293 595.708 867.514C594.93 866.736 594.93 865.474 595.708 864.695Z" fill="white" fill-opacity="0.15"/>
<path d="M533.672 762.258C533.823 763.466 533.944 763.587 535.183 763.769C533.974 763.92 533.853 764.04 533.672 765.279C533.521 764.071 533.4 763.95 532.161 763.769C533.369 763.618 533.49 763.466 533.672 762.258Z" fill="white" fill-opacity="0.1"/>
<path d="M392.511 752.031C392.662 753.239 392.783 753.36 394.022 753.541C392.813 753.692 392.692 753.813 392.511 755.051C392.36 753.843 392.239 753.723 391 753.541C392.209 753.39 392.329 753.239 392.511 752.031Z" fill="white" fill-opacity="0.1"/>
</svg>
